# xmcd
#
# Track frame offsets:
#	150
#	14645
#	31109
#	48788
#	61485
#	83030
#	95307
#	107693
#	122558
#	129406
#	148752
#	171697
#
# Disc length: 2452 seconds
#
# Revision: 4
# Processed by: cddbd v1.5.2PL0 Copyright (c) Steve Scherf et al.
# Submitted via: EZCDAudioConverter 7.0.3.1
#
DISCID=9e09920c
DTITLE=Marty Stuart and His Fabulous Superlatives - Saturday Night Sunday Mornin
DTITLE=g
DYEAR=2014
DGENRE=Country
TTITLE0=Uncloudy Day (with Mavis Staples)
TTITLE1=Boogie Woogie Down the Jericho Road
TTITLE2=Long Walk to Heaven
TTITLE3=That Gospel Music
TTITLE4=The Gospel Way
TTITLE5=Mercy #1 (Instrumental)
TTITLE6=Keep on the Firing Line
TTITLE7=My God Will Make a Way for Me
TTITLE8=Good News (Instrumental)
TTITLE9=Angels Rock Me to Sleep
TTITLE10=Cathedral (with Pastor Evelyn Hubbard and Brother Kenneth)
TTITLE11=Heaven
EXTD=
EXTT0=
EXTT1=
EXTT2=
EXTT3=
EXTT4=
EXTT5=
EXTT6=
EXTT7=
EXTT8=
EXTT9=
EXTT10=
EXTT11=
PLAYORDER=
